<?xml version="1.0" encoding="utf-8"?>
<svg width="20" height="17.95" viewBox="0 0 20 17.95" fill="none" xmlns="http://www.w3.org/2000/svg">
  <g id="Group" transform="scale(1 1)">
    <path id="Oval" d="M0 1.79487C0 0.803593 0.803593 0 1.79487 0C2.78615 0 3.58974 0.803593 3.58974 1.79487C3.58974 2.78616 2.78615 3.58975 1.79487 3.58975C0.803593 3.58975 0 2.78616 0 1.79487Z" fill="#39C1D7" fill-rule="evenodd" transform="translate(8.205 7.181)" />
    <path id="Shape" d="M2.05128 4.10256C0.920256 4.10256 0 3.18231 0 2.05128C0 0.920257 0.920256 0 2.05128 0C3.1823 0 4.10256 0.920257 4.10256 2.05128C4.10256 3.18231 3.1823 4.10256 2.05128 4.10256C2.05128 4.10256 2.05128 4.10256 2.05128 4.10256ZM2.05131 0.512846C1.20285 0.512846 0.512846 1.20285 0.512846 2.05131C0.512846 2.89977 1.20285 3.58977 2.05131 3.58977C2.89977 3.58977 3.58977 2.89977 3.58977 2.05131C3.58977 1.20285 2.89977 0.512846 2.05131 0.512846C2.05131 0.512846 2.05131 0.512846 2.05131 0.512846Z" fill="#1F212B" transform="translate(7.949 6.924)" />
    <path id="Shape" d="M19.7436 8.84666C19.7436 7.4682 18.0836 6.27513 15.5082 5.56513C16.1703 2.97641 15.9664 0.940765 14.7833 0.249996C14.3167 -0.0225684 13.7505 -0.0723121 13.1008 0.101534C12.1218 0.363586 11 1.12974 9.8718 2.25512C8.7436 1.12974 7.6218 0.363842 6.64282 0.101534C5.99308 -0.0725686 5.42693 -0.0225687 4.96026 0.249996C3.77718 0.940765 3.57334 2.97615 4.23539 5.56513C1.66 6.27513 0 7.4682 0 8.84666C0 10.2251 1.66 11.4182 4.23539 12.1285C3.57334 14.7172 3.77718 16.7528 4.96026 17.4436C5.24539 17.61 5.56744 17.6938 5.92334 17.6936C6.14975 17.6936 6.39 17.6597 6.64282 17.5921C7.6218 17.3297 8.7436 16.5638 9.8718 15.4385C11 16.5638 12.1218 17.3297 13.1008 17.5921C13.3536 17.6597 13.5939 17.6936 13.8203 17.6936C14.1762 17.6936 14.4982 17.6103 14.7833 17.4436C15.9664 16.7528 16.17 14.7172 15.5082 12.1285C18.0836 11.4182 19.7436 10.2251 19.7436 8.84666C19.7436 8.84666 19.7436 8.84666 19.7436 8.84666ZM13.2998 0.844269C13.4857 0.794781 13.658 0.769653 13.8167 0.769653C14.0372 0.769653 14.2311 0.817858 14.3954 0.914012C15.1882 1.37709 15.35 3.07299 14.7595 5.37837C13.9459 5.1953 13.0582 5.0576 12.1149 4.97248C11.5613 4.17427 10.9854 3.4476 10.4052 2.81119C11.4354 1.77863 12.4462 1.07299 13.2998 0.844269C13.2998 0.844269 13.2998 0.844269 13.2998 0.844269ZM12.6295 10.4618C12.3271 10.9915 12.0089 11.499 11.6825 11.9846C11.103 12.0279 10.4989 12.0518 9.87176 12.0518C9.24458 12.0518 8.64048 12.0279 8.06124 11.9846C7.73483 11.499 7.41663 10.9915 7.11432 10.4618C6.80176 9.9141 6.52124 9.37461 6.26996 8.84692C6.52124 8.31922 6.80176 7.77974 7.11432 7.23179C7.41688 6.70179 7.73483 6.19435 8.0615 5.70871C8.64073 5.66538 9.24458 5.64153 9.87176 5.64153C10.4989 5.64153 11.1028 5.66538 11.6823 5.70871C12.0087 6.19435 12.3269 6.70204 12.6295 7.23179C12.942 7.77948 13.2225 8.31897 13.4738 8.84692C13.2225 9.37461 12.942 9.9141 12.6295 10.4618C12.6295 10.4618 12.6295 10.4618 12.6295 10.4618ZM13.883 9.75559C14.15 10.3866 14.3705 10.9941 14.5489 11.5715C13.9656 11.7015 13.3359 11.81 12.6633 11.8902C12.8792 11.5502 13.092 11.2025 13.2974 10.8428C13.5053 10.4789 13.6994 10.1161 13.883 9.75559C13.883 9.75559 13.883 9.75559 13.883 9.75559ZM9.87178 14.3228C9.4523 13.859 9.03358 13.3454 8.62461 12.7897C9.03281 12.8095 9.44819 12.821 9.87178 12.821C10.2954 12.821 10.7108 12.8095 11.119 12.7897C10.71 13.3451 10.2913 13.8587 9.87178 14.3228C9.87178 14.3228 9.87178 14.3228 9.87178 14.3228ZM7.08006 11.8902C6.40775 11.81 5.77775 11.7015 5.19442 11.5715C5.37288 10.9941 5.59339 10.3864 5.86032 9.75559C6.04391 10.1161 6.23827 10.4789 6.44596 10.8428C6.6516 11.2028 6.86416 11.5505 7.08006 11.8902C7.08006 11.8902 7.08006 11.8902 7.08006 11.8902ZM5.86054 7.93793C5.59361 7.3069 5.37284 6.69921 5.19464 6.12152C5.77797 5.99152 6.40797 5.88306 7.08054 5.8028C6.86438 6.1428 6.65182 6.49075 6.44643 6.85049C6.23823 7.2146 6.04413 7.57742 5.86054 7.93793C5.86054 7.93793 5.86054 7.93793 5.86054 7.93793ZM9.87178 3.37081C10.2913 3.83465 10.71 4.34824 11.119 4.90389C10.7108 4.88389 10.2954 4.87235 9.87178 4.87235C9.44819 4.87235 9.03281 4.88389 8.62461 4.90363C9.03358 4.34824 9.4523 3.83465 9.87178 3.37081C9.87178 3.37081 9.87178 3.37081 9.87178 3.37081ZM13.2974 6.85071C13.092 6.49071 12.8792 6.14302 12.6633 5.80302C13.3358 5.88328 13.9656 5.99174 14.5492 6.12174C14.3707 6.69943 14.1502 7.30687 13.8833 7.93815C13.6994 7.57738 13.5053 7.21456 13.2974 6.85071C13.2974 6.85071 13.2974 6.85071 13.2974 6.85071ZM5.34821 0.914012C5.51282 0.817858 5.70616 0.769653 5.92692 0.769653C6.08539 0.769653 6.25821 0.794781 6.44385 0.844269C7.29744 1.07299 8.30821 1.77837 9.33846 2.81094C8.75821 3.44735 8.18231 4.17427 7.62872 4.97222C6.68539 5.05735 5.79744 5.19504 4.9841 5.37812C4.39359 3.07273 4.55539 1.37683 5.34821 0.914012C5.34821 0.914012 5.34821 0.914012 5.34821 0.914012ZM0.769215 8.8467C0.769215 7.92465 2.15409 6.939 4.44486 6.30798C4.69332 7.11798 5.01947 7.97106 5.42075 8.8467C5.01947 9.72234 4.69332 10.5754 4.44486 11.3854C2.15409 10.7544 0.769215 9.76875 0.769215 8.8467C0.769215 8.8467 0.769215 8.8467 0.769215 8.8467ZM6.44385 16.849C5.99949 16.9674 5.63103 16.9441 5.34821 16.7795C4.55539 16.3164 4.39385 14.6205 4.9841 12.3151C5.79744 12.4982 6.68539 12.6359 7.62846 12.721C8.18206 13.5192 8.75795 14.2459 9.33821 14.8825C8.30821 15.9149 7.29744 16.6202 6.44385 16.849C6.44385 16.849 6.44385 16.849 6.44385 16.849ZM14.3954 16.7795C14.1126 16.9446 13.7444 16.9677 13.2998 16.849C12.4462 16.6203 11.4354 15.9149 10.4052 14.8823C10.9854 14.2459 11.5613 13.519 12.1149 12.7208C13.0582 12.6357 13.9459 12.498 14.7593 12.3149C15.35 14.6205 15.1883 16.3164 14.3954 16.7795C14.3954 16.7795 14.3954 16.7795 14.3954 16.7795ZM15.2987 11.3854C15.0502 10.5754 14.7241 9.72234 14.3228 8.8467C14.7241 7.97106 15.0502 7.11772 15.2987 6.30798C17.5894 6.939 18.9743 7.92465 18.9743 8.8467C18.9743 9.76875 17.5894 10.7544 15.2987 11.3854C15.2987 11.3854 15.2987 11.3854 15.2987 11.3854Z" fill="#39C1D7" transform="translate(0.128 0.129)" />
    <path id="Shape" d="M6.05 17.9502C5.67282 17.9502 5.32769 17.8602 5.0241 17.6827C3.83641 16.9891 3.54128 15.0479 4.20923 12.3466C1.53205 11.5853 0 10.3599 0 8.9753C0 7.59068 1.53205 6.3653 4.20897 5.60402C3.54128 2.90274 3.83641 0.961453 5.0241 0.267864C5.52103 -0.0229055 6.11974 -0.0772645 6.80436 0.106325C7.75769 0.36171 8.86077 1.08581 10 2.2035C11.1395 1.08581 12.2426 0.36171 13.1956 0.106325C13.88 -0.0767517 14.479 -0.0223927 14.9762 0.267864C16.1636 0.961453 16.4587 2.90274 15.791 5.60402C18.468 6.3653 20 7.59068 20 8.9753C20 10.3599 18.468 11.5853 15.791 12.3466C16.4587 15.0479 16.1638 16.9889 14.9762 17.6827C14.4821 17.9712 13.8772 18.0268 13.1959 17.8443C12.2423 17.5889 11.1392 16.8648 10 15.7474C8.86077 16.8648 7.75769 17.5891 6.80436 17.8443C6.54205 17.9145 6.28872 17.9502 6.05154 17.9502C6.05103 17.9502 6.05051 17.9502 6.05 17.9502C6.05 17.9502 6.05 17.9502 6.05 17.9502ZM6.05226 0.257135C5.71867 0.257135 5.41791 0.334571 5.15303 0.489443C4.06996 1.12201 3.82124 3.0556 4.48765 5.66201C4.50483 5.7297 4.46483 5.79893 4.39739 5.8174C1.80457 6.53227 0.256368 7.71304 0.256368 8.97535C0.256368 10.2377 1.80457 11.4184 4.39765 12.1333C4.46509 12.1518 4.50508 12.221 4.48791 12.2887C3.82124 14.8951 4.06996 16.8289 5.15303 17.4613C5.41714 17.6154 5.71893 17.6936 6.04996 17.6936C6.05047 17.6936 6.05098 17.6936 6.05149 17.6936C6.26637 17.6936 6.49714 17.661 6.73791 17.5966C7.67303 17.3461 8.76996 16.613 9.90944 15.4761C9.95944 15.4264 10.0405 15.4264 10.0905 15.4761C11.23 16.6128 12.3269 17.3459 13.262 17.5966C13.8759 17.7605 14.412 17.7148 14.8469 17.4613C15.93 16.8287 16.1787 14.8951 15.512 12.2887C15.4948 12.221 15.5348 12.1518 15.6023 12.1333C18.1953 11.4184 19.7435 10.2377 19.7435 8.97535C19.7435 7.71304 18.1953 6.53227 15.6023 5.8174C15.5348 5.79893 15.4948 5.7297 15.512 5.66201C16.1784 3.0556 15.9297 1.12175 14.8466 0.489443C14.411 0.234827 13.8776 0.189443 13.2617 0.354058C12.3266 0.604571 11.23 1.33765 10.0902 2.47457C10.0402 2.52432 9.95919 2.52432 9.90919 2.47457C8.76944 1.33765 7.67278 0.604572 6.73765 0.354058C6.49637 0.289443 6.26765 0.257135 6.05226 0.257135C6.05226 0.257135 6.05226 0.257135 6.05226 0.257135ZM13.9451 17.1802C13.7751 17.1802 13.5915 17.154 13.3948 17.1014C12.5407 16.8725 11.52 16.1812 10.4425 15.1014C10.3943 15.053 10.3925 14.975 10.4384 14.9245C11.0192 14.2876 11.5907 13.5648 12.1377 12.7763C12.1592 12.745 12.1936 12.725 12.2315 12.7217C13.1577 12.6381 14.0418 12.5025 14.8595 12.3183C14.9264 12.3032 14.9946 12.3442 15.0118 12.4117C15.6107 14.7509 15.4484 16.5163 14.5882 17.0186C14.5882 17.0186 14.5882 17.0186 14.5882 17.0186C14.4038 17.1263 14.1887 17.1802 13.9451 17.1802C13.9451 17.1802 13.9451 17.1802 13.9451 17.1802ZM10.7105 15.0064C11.7236 16.0048 12.6728 16.6425 13.461 16.8538C13.871 16.9633 14.2069 16.9443 14.459 16.7974C14.459 16.7974 14.459 16.7974 14.459 16.7974C15.191 16.3697 15.3197 14.7274 14.7938 12.5956C14.0174 12.7646 13.1844 12.891 12.3144 12.9717C11.7974 13.7133 11.2585 14.3969 10.7105 15.0064C10.7105 15.0064 10.7105 15.0064 10.7105 15.0064ZM6.05481 17.1801C5.81122 17.1801 5.59609 17.1263 5.41174 17.0189C4.55148 16.5163 4.38891 14.7509 4.98815 12.4117C5.00532 12.3445 5.07353 12.3042 5.14045 12.3184C5.95789 12.5025 6.84199 12.6381 7.7684 12.7217C7.8061 12.725 7.84071 12.745 7.86225 12.7763C8.40917 13.5648 8.98071 14.2876 9.56148 14.9245C9.60764 14.975 9.60584 15.053 9.55738 15.1014C8.47994 16.1809 7.45917 16.8724 6.60533 17.1014C6.60533 17.1014 6.60533 17.1014 6.60533 17.1014C6.4084 17.1537 6.22456 17.1801 6.05481 17.1801C6.05481 17.1801 6.05481 17.1801 6.05481 17.1801ZM5.20617 12.5956C4.68027 14.7271 4.80899 16.3697 5.54104 16.7974C5.79284 16.944 6.12874 16.9633 6.53899 16.8538C6.53899 16.8538 6.53899 16.8538 6.53899 16.8538C7.3272 16.6425 8.27643 16.0046 9.28951 15.0063C8.74181 14.3969 8.20284 13.7133 7.68592 12.9717C6.81592 12.891 5.98258 12.7646 5.20617 12.5956C5.20617 12.5956 5.20617 12.5956 5.20617 12.5956ZM9.99992 14.5794C9.96376 14.5794 9.92915 14.564 9.90479 14.5371C9.47838 14.0656 9.05607 13.5464 8.64941 12.9941C8.62018 12.9543 8.61633 12.901 8.63967 12.8574C8.663 12.8138 8.70659 12.7871 8.7589 12.79C9.60659 12.8312 10.3933 12.8312 11.2409 12.79C11.2922 12.7869 11.3368 12.8138 11.3602 12.8574C11.3835 12.901 11.3799 12.9541 11.3504 12.9941C10.9438 13.5461 10.5215 14.0653 10.095 14.5371C10.0707 14.564 10.0361 14.5794 9.99992 14.5794C9.99992 14.5794 9.99992 14.5794 9.99992 14.5794ZM9.01716 13.0584C9.33792 13.4827 9.66767 13.8855 9.99997 14.2594C10.3325 13.8855 10.662 13.483 10.9828 13.0584C10.313 13.084 9.6869 13.084 9.01716 13.0584C9.01716 13.0584 9.01716 13.0584 9.01716 13.0584ZM9.99993 12.3087C9.3925 12.3087 8.78019 12.2861 8.17968 12.2412C8.14045 12.2384 8.10481 12.2176 8.08276 12.1848C7.73993 11.6748 7.41968 11.1597 7.13096 10.654C6.8284 10.1238 6.54276 9.57763 6.28224 9.03045C6.26558 8.99557 6.26558 8.95506 6.28224 8.92019C6.54275 8.37301 6.8284 7.82686 7.13096 7.2966C7.41942 6.79147 7.73968 6.27635 8.08301 5.76558C8.10481 5.73301 8.1407 5.71224 8.17993 5.70917C9.38096 5.61942 10.6192 5.61942 11.8199 5.70917C11.8592 5.71199 11.8948 5.73276 11.9169 5.76558C12.2602 6.27635 12.5804 6.79147 12.8689 7.2966C13.1715 7.82686 13.4571 8.37301 13.7176 8.92019C13.7343 8.95506 13.7343 8.99557 13.7176 9.03045C13.4571 9.57763 13.1715 10.1238 12.8689 10.654C12.8689 10.654 12.8689 10.654 12.8689 10.654C12.5802 11.1597 12.2599 11.6748 11.9171 12.1848C11.8953 12.2174 11.8594 12.2381 11.8202 12.2412C11.2197 12.2861 10.6074 12.3087 9.99993 12.3087C9.99993 12.3087 9.99993 12.3087 9.99993 12.3087ZM8.26102 11.99C9.40948 12.0725 10.5905 12.0725 11.7387 11.99C12.0651 11.502 12.3702 11.01 12.6461 10.5266C12.9354 10.0197 13.209 9.49817 13.4597 8.97535C13.209 8.45253 12.9354 7.93073 12.6461 7.42407C12.3705 6.94125 12.0654 6.4492 11.7385 5.96048C10.59 5.87791 9.40922 5.87791 8.26076 5.96048C7.93409 6.44919 7.62871 6.94125 7.35307 7.42407C7.06384 7.93099 6.79025 8.45253 6.53948 8.97535C6.79025 9.49817 7.06384 10.02 7.35307 10.5266C7.62948 11.0102 7.93461 11.502 8.26102 11.99C8.26102 11.99 8.26102 11.99 8.26102 11.99ZM12.7918 12.1474C12.7482 12.1474 12.7069 12.1251 12.6833 12.0876C12.6569 12.0456 12.6571 11.9922 12.6836 11.9504C12.9215 11.5758 13.1279 11.2348 13.3143 10.9081C13.5102 10.5651 13.7061 10.201 13.8971 9.82634C13.9197 9.78198 13.9671 9.75557 14.0159 9.7566C14.0656 9.7584 14.11 9.78865 14.1295 9.83481C14.3897 10.4499 14.6151 11.0651 14.7997 11.6627C14.8105 11.6969 14.8061 11.734 14.7882 11.7648C14.7702 11.7958 14.74 11.8179 14.7051 11.8256C14.1025 11.9602 13.4638 12.0681 12.8069 12.1466C12.8018 12.1471 12.7966 12.1474 12.7918 12.1474C12.7918 12.1474 12.7918 12.1474 12.7918 12.1474ZM13.999 10.1883C13.8467 10.4801 13.6918 10.764 13.5372 11.035C13.3877 11.2971 13.2254 11.5681 13.0449 11.8578C13.55 11.7907 14.0423 11.7058 14.5133 11.6048C14.3654 11.1396 14.1931 10.665 13.999 10.1883C13.999 10.1883 13.999 10.1883 13.999 10.1883ZM7.20818 12.1473C7.20305 12.1473 7.19793 12.1471 7.1928 12.1466C6.53613 12.0679 5.89742 11.9599 5.29485 11.8253C5.25998 11.8176 5.22998 11.7956 5.21177 11.7645C5.19383 11.7335 5.18972 11.6966 5.20024 11.6625C5.38485 11.0645 5.61024 10.4497 5.87049 9.83453C5.88998 9.78863 5.93434 9.75811 5.98408 9.75632C6.03075 9.75145 6.08024 9.7817 6.1028 9.82606C6.29383 10.2007 6.48972 10.5648 6.68562 10.9079C6.87229 11.2345 7.0787 11.5756 7.31639 11.9502C7.34305 11.992 7.34305 12.0453 7.31664 12.0873C7.29305 12.125 7.25203 12.1473 7.20818 12.1473C7.20818 12.1473 7.20818 12.1473 7.20818 12.1473ZM5.48694 11.6048C5.95797 11.7058 6.45027 11.7907 6.9554 11.8578C6.77463 11.5681 6.61258 11.2971 6.4631 11.035C6.30822 10.764 6.15361 10.4799 6.0013 10.1883C5.80694 10.665 5.63463 11.1396 5.48694 11.6048C5.48694 11.6048 5.48694 11.6048 5.48694 11.6048ZM15.4269 11.6422C15.3718 11.6422 15.3213 11.6066 15.3044 11.5515C15.0544 10.7364 14.728 9.88764 14.3346 9.02892C14.319 8.99507 14.319 8.95584 14.3346 8.922C14.728 8.06328 15.0544 7.21431 15.3046 6.39892C15.3251 6.33252 15.3954 6.29534 15.4613 6.31303C17.7864 6.9538 19.2308 7.97379 19.2308 8.97533C19.2308 9.97687 17.7862 10.9969 15.4608 11.6376C15.4495 11.6407 15.4379 11.6422 15.4269 11.6422C15.4269 11.6422 15.4269 11.6422 15.4269 11.6422ZM14.5921 8.97535C14.9603 9.78433 15.2698 10.5848 15.5123 11.3569C17.6198 10.7561 18.9744 9.82715 18.9744 8.97535C18.9744 8.12356 17.6198 7.19459 15.5123 6.59382C15.2695 7.36613 14.96 8.16664 14.5921 8.97535C14.5921 8.97535 14.5921 8.97535 14.5921 8.97535ZM4.57306 11.6422C4.56178 11.6422 4.5505 11.6407 4.53896 11.6376C2.21383 10.9969 0.769215 9.97687 0.769215 8.97533C0.769215 7.97379 2.21357 6.9538 4.53896 6.31303C4.60511 6.29534 4.67511 6.33252 4.69562 6.39892C4.94588 7.21431 5.27229 8.06328 5.66562 8.922C5.68127 8.95584 5.68127 8.99482 5.66562 9.02892C5.27203 9.88789 4.94588 10.7366 4.69588 11.5515C4.67896 11.6066 4.62819 11.6422 4.57306 11.6422C4.57306 11.6422 4.57306 11.6422 4.57306 11.6422ZM4.48775 6.59382C2.38031 7.19459 1.02569 8.12356 1.02569 8.97535C1.02569 9.82715 2.38031 10.7561 4.48774 11.3569C4.73057 10.5848 5.0398 9.78458 5.408 8.97535C5.04005 8.16664 4.73057 7.36612 4.48775 6.59382C4.48775 6.59382 4.48775 6.59382 4.48775 6.59382ZM14.0116 8.19503C13.9634 8.19503 13.9193 8.16811 13.8972 8.12503C13.7031 7.74349 13.5124 7.38939 13.3147 7.04298C13.3147 7.04298 13.3147 7.04298 13.3147 7.04298C13.1285 6.71682 12.9221 6.3758 12.6836 6.00041C12.657 5.95862 12.657 5.90529 12.6834 5.86323C12.7098 5.82144 12.757 5.79836 12.8072 5.80426C13.4644 5.88298 14.1031 5.99093 14.7057 6.12529C14.7406 6.13298 14.7706 6.15503 14.7888 6.18605C14.8067 6.21708 14.8108 6.254 14.8003 6.28811C14.6154 6.88708 14.3898 7.50221 14.1301 8.11657C14.1106 8.16247 14.0662 8.19298 14.0165 8.19477C14.0144 8.19503 14.0129 8.19503 14.0116 8.19503C14.0116 8.19503 14.0116 8.19503 14.0116 8.19503ZM13.5369 6.91588C13.6936 7.19024 13.8459 7.46921 13.9987 7.76255C14.1926 7.28665 14.3649 6.81152 14.5128 6.34588C14.0418 6.24485 13.5495 6.15998 13.0441 6.0928C13.2257 6.38306 13.3877 6.65409 13.5369 6.91588C13.5369 6.91588 13.5369 6.91588 13.5369 6.91588C13.5369 6.91588 13.5369 6.91588 13.5369 6.91588ZM5.98848 8.19514C5.98694 8.19514 5.98541 8.19514 5.98387 8.19514C5.93412 8.19334 5.88976 8.16309 5.87028 8.11693C5.61053 7.50257 5.38489 6.88744 5.20002 6.28847C5.18925 6.25437 5.19361 6.21719 5.21156 6.18642C5.22951 6.15539 5.25976 6.13334 5.29464 6.12565C5.8972 5.99103 6.53592 5.88308 7.1931 5.80462C7.2431 5.79949 7.29053 5.8218 7.31695 5.8636C7.34336 5.90565 7.3431 5.95898 7.31669 6.00078C7.07823 6.37616 6.87182 6.71719 6.68566 7.04334C6.48797 7.38975 6.2972 7.7436 6.1031 8.1254C6.08079 8.16822 6.03669 8.19514 5.98848 8.19514C5.98848 8.19514 5.98848 8.19514 5.98848 8.19514ZM5.48694 6.34588C5.63489 6.81152 5.80745 7.28665 6.00104 7.76255C6.15412 7.46921 6.30617 7.19024 6.46284 6.91588C6.61233 6.65409 6.77438 6.38306 6.9554 6.0928C6.45027 6.15998 5.95797 6.24485 5.48694 6.34588C5.48694 6.34588 5.48694 6.34588 5.48694 6.34588ZM14.888 5.63527C14.8785 5.63527 14.8693 5.63424 14.8598 5.63219C14.0424 5.44809 13.158 5.31245 12.2316 5.22886C12.1939 5.22552 12.1593 5.20552 12.1377 5.17424C11.5908 4.38552 11.019 3.66296 10.4385 3.02629C10.3924 2.97578 10.3942 2.89783 10.4426 2.84937C11.5198 1.76988 12.5408 1.07808 13.3949 0.849366C13.3949 0.849366 13.3949 0.849366 13.3949 0.849366C13.8742 0.721161 14.2765 0.750136 14.5883 0.93193C15.4485 1.4345 15.6111 3.19988 15.0121 5.53911C14.9972 5.59655 14.9454 5.63527 14.888 5.63527C14.888 5.63527 14.888 5.63527 14.888 5.63527ZM12.3141 4.97882C13.1841 5.05958 14.0175 5.18599 14.7939 5.35497C15.3198 3.22343 15.1911 1.58087 14.4587 1.15318C14.2077 1.00677 13.8713 0.987535 13.4611 1.09677C12.6728 1.30805 11.7234 1.946 10.7103 2.94446C11.2582 3.55343 11.7972 4.23702 12.3141 4.97882C12.3141 4.97882 12.3141 4.97882 12.3141 4.97882ZM5.11203 5.63527C5.05459 5.63527 5.0028 5.59655 4.98793 5.53886C4.38895 3.19962 4.55126 1.43449 5.41152 0.931931C5.41152 0.931931 5.41152 0.931931 5.41177 0.931931C5.72357 0.750136 6.12639 0.721161 6.60485 0.849366C7.45921 1.07834 8.47998 1.76988 9.55716 2.84937C9.60537 2.89783 9.60716 2.97578 9.56126 3.02629C8.98075 3.66296 8.40896 4.38578 7.86203 5.17424C7.84049 5.20552 7.80613 5.22552 7.76819 5.22886C6.84203 5.31245 5.95767 5.44809 5.13998 5.63219C5.13075 5.63424 5.12152 5.63527 5.11203 5.63527C5.11203 5.63527 5.11203 5.63527 5.11203 5.63527ZM5.54099 1.15319C4.80894 1.58089 4.68022 3.22345 5.20586 5.35499C5.98227 5.18602 6.81561 5.05961 7.68561 4.97884C8.20278 4.23704 8.7415 3.55345 9.2892 2.94422C8.27612 1.94576 7.32689 1.30781 6.53842 1.09653C6.12996 0.987554 5.79304 1.00653 5.54099 1.15319C5.54099 1.15319 5.54099 1.15319 5.54099 1.15319C5.54099 1.15319 5.54099 1.15319 5.54099 1.15319ZM11.2471 5.16037C11.2451 5.16037 11.243 5.16037 11.241 5.16037C10.3933 5.11909 9.60689 5.11909 8.7592 5.16037C8.70638 5.16165 8.6633 5.13627 8.63997 5.09294C8.61663 5.04935 8.62022 4.99627 8.64971 4.95627C9.05663 4.4037 9.47894 3.88447 9.90509 3.41319C9.95381 3.3596 10.0466 3.3596 10.0953 3.41319C10.5212 3.88422 10.9436 4.40345 11.3507 4.95627C11.38 4.99601 11.3838 5.04935 11.3605 5.09294C11.3377 5.13447 11.2941 5.16037 11.2471 5.16037C11.2471 5.16037 11.2471 5.16037 11.2471 5.16037ZM9.99997 4.87277C10.3184 4.87277 10.6479 4.87944 10.9828 4.89252C10.6618 4.46764 10.332 4.06482 9.99997 3.69149C9.66792 4.06508 9.33818 4.46764 9.01716 4.89252C9.35203 4.87944 9.68151 4.87277 9.99997 4.87277C9.99997 4.87277 9.99997 4.87277 9.99997 4.87277Z" fill="#1F212B" />
  </g>
</svg>